<?xml version="1.0" standalone="no"?><!DOCTYPE svg PUBLIC "-//W3C//DTD SVG 1.1//EN" "http://www.w3.org/Graphics/SVG/1.1/DTD/svg11.dtd"><svg t="1665546306069" class="icon" viewBox="0 0 1024 1024" version="1.1" xmlns="http://www.w3.org/2000/svg" p-id="6657" xmlns:xlink="http://www.w3.org/1999/xlink" width="200" height="200"><path d="M512 953.344c-28.672-18.432-57.344-36.352-85.504-55.296-34.304-23.552-68.608-46.592-100.864-72.704-49.152-39.936-96.768-80.896-143.36-123.392-23.04-20.992-44.544-45.056-63.488-70.144C33.28 520.192 9.216 396.288 51.2 260.608c5.632-17.92 11.776-35.84 20.48-52.736 9.728-18.944 31.744-25.6 48.64-18.432 17.92 8.192 25.088 26.112 18.432 48.128-9.216 30.208-22.016 59.392-27.648 90.112-14.848 86.528 1.024 167.936 53.76 239.616 19.456 26.624 40.448 52.224 65.024 73.728 57.856 50.688 117.76 99.328 177.664 147.968 30.208 24.576 62.976 46.592 94.208 69.632 10.24 7.68 17.92 6.656 28.16-1.024 69.12-52.224 140.8-102.4 208.384-156.672 39.424-31.744 77.824-67.584 109.056-107.52 81.408-102.912 102.912-216.064 51.2-340.992-38.912-94.208-160.256-119.808-237.568-65.024-38.912 27.648-75.264 57.856-113.664 86.528-27.136 20.48-35.328 20.48-61.952 1.024-35.84-26.624-71.68-53.248-107.008-80.896-28.16-20.992-19.968-51.2 10.752-68.096 6.144-3.072 18.944 0.512 26.112 5.12 33.792 22.528 66.048 47.104 100.864 71.68C550.912 175.616 583.68 147.456 619.52 122.88c56.832-38.912 119.808-49.664 186.88-34.304 88.064 19.968 141.312 77.824 168.96 161.28 9.216 27.136 14.848 54.784 22.016 82.432v97.28c-1.536 4.608-3.584 8.704-4.096 13.312-9.216 65.536-34.304 125.44-73.216 178.176-21.504 29.184-46.08 56.832-72.192 81.408-43.52 40.448-89.088 78.848-135.168 116.224-29.696 24.064-61.952 46.08-93.696 67.584-33.792 23.04-68.608 44.544-102.912 66.56-1.024 0.512-2.56 0.512-4.096 0.512z" p-id="6658" fill="#ffffff"></path><path d="M288.256 134.144c0 32.768-23.04 56.32-54.784 56.832-32.256 0-55.808-24.576-55.808-58.368 0.512-32.256 24.064-55.808 56.32-55.296 32.768 0 54.272 23.04 54.272 56.832z" p-id="6659" fill="#ffffff"></path></svg>