<?xml version="1.0" standalone="no"?><!DOCTYPE svg PUBLIC "-//W3C//DTD SVG 1.1//EN" "http://www.w3.org/Graphics/SVG/1.1/DTD/svg11.dtd"><svg t="1665564838873" class="icon" viewBox="0 0 1024 1024" version="1.1" xmlns="http://www.w3.org/2000/svg" p-id="6830" xmlns:xlink="http://www.w3.org/1999/xlink" width="200" height="200"><path d="M888.832 276.48h-462.848c-176.128 0-317.44 141.312-317.44 317.44s141.312 317.44 317.44 317.44h208.896c12.288 0 20.48 8.192 20.48 20.48s-8.192 20.48-20.48 20.48h-208.896c-198.656 0-358.4-159.744-358.4-358.4s159.744-358.4 358.4-358.4h462.848l-139.264-139.264c-8.192-8.192-8.192-20.48 0-28.672 8.192-8.192 20.48-8.192 28.672 0l174.08 174.08c8.192 8.192 8.192 20.48 0 28.672l-174.08 174.08c-8.192 8.192-20.48 8.192-28.672 0-8.192-8.192-8.192-20.48 0-28.672l139.264-139.264z" p-id="6831"></path></svg>