<?xml version="1.0" standalone="no"?><!DOCTYPE svg PUBLIC "-//W3C//DTD SVG 1.1//EN" "http://www.w3.org/Graphics/SVG/1.1/DTD/svg11.dtd"><svg t="1665546897554" class="icon" viewBox="0 0 1024 1024" version="1.1" xmlns="http://www.w3.org/2000/svg" p-id="4010" xmlns:xlink="http://www.w3.org/1999/xlink" width="200" height="200"><path d="M938 271.5c0.5-9.9-3-20-10.6-27.6L756.9 73.4c-7.4-7.4-17.2-10.9-26.9-10.6H374.4c-40.2 0-72.9 32.7-72.9 72.9v43.6H157.3c-40.2 0-72.9 32.7-72.9 72.9V435.3c0 22.1 17.9 40 40 40s40-17.9 40-40v-176h137.1v509.8c0 40.2 32.7 72.9 72.9 72.9H641v36.5H164.4V700.3h-0.1c-1-21.2-18.5-38-39.9-38s-38.9 16.8-39.9 38h-0.1v185.2c0 40.2 32.7 72.9 72.9 72.9h490.8c40.2 0 72.9-32.7 72.9-72.9V842h144.2c40.2 0 72.9-32.7 72.9-72.9l-0.1-497.6zM731.7 150.8l111.1 111.1H731.7V150.8zM858.1 762H381.5V142.8h282v120.1c0 37.1 30.2 67.2 67.2 67.2H858V762z" p-id="4011" fill="#2c2c2c"></path><path d="M452.9 478.8c0 21.7 17.8 39.5 39.5 39.5h254.7c21.7 0 39.5-17.8 39.5-39.5s-17.8-39.5-39.5-39.5H492.4c-21.7 0-39.5 17.8-39.5 39.5zM747.1 573.3H492.4c-21.7 0-39.5 17.8-39.5 39.5s17.8 39.5 39.5 39.5h254.7c21.7 0 39.5-17.8 39.5-39.5s-17.8-39.5-39.5-39.5z" p-id="4012" fill="#2c2c2c"></path><path d="M124.4 569.3m-40 0a40 40 0 1 0 80 0 40 40 0 1 0-80 0Z" p-id="4013" fill="#2c2c2c"></path></svg>