<?xml version="1.0" standalone="no"?><!DOCTYPE svg PUBLIC "-//W3C//DTD SVG 1.1//EN" "http://www.w3.org/Graphics/SVG/1.1/DTD/svg11.dtd"><svg t="1665565385427" class="icon" viewBox="0 0 1024 1024" version="1.1" xmlns="http://www.w3.org/2000/svg" p-id="7518" xmlns:xlink="http://www.w3.org/1999/xlink" width="200" height="200"><path d="M880.64 20.48H143.36a122.88 122.88 0 0 0-122.88 122.88v737.28a122.88 122.88 0 0 0 122.88 122.88h737.28a122.88 122.88 0 0 0 122.88-122.88V143.36a122.88 122.88 0 0 0-122.88-122.88z m71.68 122.88v179.2H708.1984V71.68H880.64A71.68 71.68 0 0 1 952.32 143.36zM380.5184 650.24v-276.48h276.48v276.48z m276.48 51.2V952.32h-276.48V701.44z m-327.68-51.2H71.68v-276.48h257.6384z m51.2-327.68V71.68h276.48v250.88z m327.68 51.2H952.32v276.48H708.1984zM143.36 71.68h185.9584v250.88H71.68V143.36A71.68 71.68 0 0 1 143.36 71.68zM71.68 880.64v-179.2h257.6384V952.32H143.36A71.68 71.68 0 0 1 71.68 880.64zM880.64 952.32h-172.4416V701.44H952.32V880.64a71.68 71.68 0 0 1-71.68 71.68z" p-id="7519"></path></svg>