<?xml version="1.0" standalone="no"?><!DOCTYPE svg PUBLIC "-//W3C//DTD SVG 1.1//EN" "http://www.w3.org/Graphics/SVG/1.1/DTD/svg11.dtd"><svg t="1665731552482" class="icon" viewBox="0 0 1024 1024" version="1.1" xmlns="http://www.w3.org/2000/svg" p-id="2111" xmlns:xlink="http://www.w3.org/1999/xlink" width="200" height="200"><path d="M401.9 644m-260.9 0a260.9 260.9 0 1 0 521.8 0 260.9 260.9 0 1 0-521.8 0Z" fill="#ffffff" p-id="2112" data-spm-anchor-id="a313x.7781069.0.i2" class="selected"></path><path d="M887.6 145.7c-4.8-6.3-12.3-10.4-20.8-10.3l-245.5 4c-14.1 0.2-25.4 11.9-25.2 26 0.2 14.1 11.9 25.4 26 25.2l182.5-3-198.3 204.7c-3.1 3.2-5 6.9-6.1 10.9C545 357.7 474 330.7 396.9 332c-172.1 2.7-309.8 145-307 317s145 309.8 317.1 307c172.1-2.8 309.8-145 307-317.1-1.3-78.9-31.9-150.5-81.2-204.7 3.8-1.3 7.3-3.3 10.3-6.4L844.3 220c2.8-2.9 4.7-6.2 5.8-9.8l3.3 203.6c0.2 14.1 11.9 25.4 26 25.2 14.1-0.2 25.4-11.9 25.2-26l-4-245.5c-0.1-9.5-5.4-17.5-13-21.8zM406.2 904.9c-143.9 2.3-262.8-112.8-265.1-256.7-2.3-143.9 112.8-262.8 256.7-265.1s262.8 112.8 265.1 256.7S550 902.5 406.2 904.9z m443.7-711.5c-0.8-2.3-2-4.5-3.5-6.5l3.4-0.1 0.1 6.6z" fill="#658edf" p-id="2113"></path></svg>