<?xml version="1.0" standalone="no"?><!DOCTYPE svg PUBLIC "-//W3C//DTD SVG 1.1//EN" "http://www.w3.org/Graphics/SVG/1.1/DTD/svg11.dtd"><svg t="1665454275228" class="icon" viewBox="0 0 1298 1024" version="1.1" xmlns="http://www.w3.org/2000/svg" p-id="10517" xmlns:xlink="http://www.w3.org/1999/xlink" width="253.515625" height="200"><path d="M1154.635631 86.020889c36.516861 0 66.158162 29.641301 66.158162 66.158162l0 728.35094c0 36.516861-29.641301 66.158162-66.158162 66.158162l-993.136377 0c-36.516861 0-66.158162-29.641301-66.158162-66.158162L95.341092 152.331841c0-36.516861 29.641301-66.158162 66.158162-66.158162L1154.635631 86.173679M1154.635631 19.862728l-993.136377 0C88.618323 19.862728 29.03014 79.45091 29.03014 152.331841l0 728.35094C29.03014 953.410922 88.618323 1012.999105 161.499254 1012.999105l993.136377 0c72.880931 0 132.469114-59.588183 132.469114-132.469114L1287.104745 152.331841C1286.951955 79.45091 1227.363772 19.862728 1154.635631 19.862728L1154.635631 19.862728z" p-id="10518" fill="#ffffff"></path><path d="M719.336318 402.907789c0-85.868099-69.672337-155.540436-155.540436-155.540436s-155.540436 69.672337-155.540436 155.540436c0 51.948672 25.668756 97.632945 64.93584 125.899135-90.299015 33.308266-161.804834 108.633841-187.3208 205.655625-4.583706 17.723665 5.958818 35.75291 23.529693 40.489406 2.750224 0.763951 5.653238 1.069531 8.403462 1.069531 14.66786 0 28.113399-9.778574 31.933154-24.752014 27.196658-103.133393 120.704267-175.097583 227.504625-175.097583 15.584602 0 27.960609-10.848105 31.474784-25.363175C672.735303 531.557147 719.336318 473.038496 719.336318 402.907789zM563.795882 492.290063c-49.198448 0-89.382274-40.031036-89.382274-89.382274 0-49.198448 40.031036-89.382274 89.382274-89.382274s89.382274 40.031036 89.382274 89.382274C653.178156 452.259027 613.14712 492.290063 563.795882 492.290063z" p-id="10519" fill="#ffffff"></path><path d="M900.087138 566.393315c-12.987168-12.987168-33.919427-12.987168-46.753805 0-12.987168 12.987168-12.987168 33.919427 0 46.753805l40.489406 40.489406L636.218442 653.636526l0 66.158162 256.993136 0-40.031036 40.031036c-12.987168 12.987168-12.987168 33.919427 0 46.753805 6.417189 6.417189 14.973441 9.625783 23.376902 9.625783 8.403462 0 16.959714-3.208594 23.376902-9.625783l120.093107-120.093107L900.087138 566.393315z" p-id="10520" fill="#ffffff"></path></svg>