<?xml version="1.0" standalone="no"?><!DOCTYPE svg PUBLIC "-//W3C//DTD SVG 1.1//EN" "http://www.w3.org/Graphics/SVG/1.1/DTD/svg11.dtd"><svg t="1665734211992" class="icon" viewBox="0 0 1024 1024" version="1.1" xmlns="http://www.w3.org/2000/svg" p-id="8304" xmlns:xlink="http://www.w3.org/1999/xlink" width="200" height="200"><path d="M867.8 537.52c-9.39 0-17.01 7.61-17.01 17.01v287.91c0 45.21-36.78 81.99-81.99 81.99H375.97c-45.21 0-81.99-36.78-81.99-81.99v-52.4c0-41.4-17.69-80.98-48.53-108.59l-66.34-59.39a69.931 69.931 0 0 1-23.26-52.05v-6.93c0-26.85 14.29-50.14 38.24-62.29 23.94-12.15 51.18-9.95 72.85 5.89l27.04 19.77V377.98c0-74.37 28.96-144.28 81.54-196.86 52.58-52.58 122.5-81.54 196.86-81.54s144.28 28.96 196.86 81.54 81.54 122.5 81.54 196.86c0 9.39 7.61 17.01 17.01 17.01s17.01-7.61 17.01-17.01c0-83.45-32.5-161.91-91.51-220.92-59.01-59.01-137.46-91.51-220.92-91.51s-161.91 32.5-220.92 91.51-91.51 137.46-91.51 220.92v86.97c-26.29-9.24-55.52-7.58-81.28 5.5-35.07 17.8-56.85 53.3-56.85 92.62V570c0 29.51 12.61 57.72 34.59 77.4l66.34 59.39c23.65 21.17 37.21 51.51 37.21 83.24v52.4c0 63.97 52.04 116.01 116.01 116.01H768.8c63.97 0 116.01-52.04 116.01-116.01v-287.9c0-9.4-7.62-17.01-17.01-17.01z" p-id="8305" fill="#4ea4fd"></path><path d="M357.8 293.69c1.71 1.57 3.72 2.62 6.02 3.17 4.54 1.03 9.63 0.81 13.65-1.79 1.2-0.92 2.39-1.85 3.59-2.77 2.2-2.21 3.71-4.82 4.56-7.82 1.11-3.3 2.35-6.56 3.66-9.79 5.41-12.28 12.25-23.9 20.31-34.63 8.62-10.86 18.46-20.7 29.32-29.32 10.76-8.08 22.41-14.93 34.74-20.34 2.5-1.01 5.02-1.98 7.57-2.88 4.39-1.54 8.18-4.03 10.59-8.14 1.29-2.03 2-4.23 2.1-6.59 0.53-2.35 0.42-4.71-0.32-7.06-1.39-4.29-4.04-8.42-8.14-10.59-4.05-2.14-9.17-3.36-13.65-1.79-11.16 3.91-22.08 8.76-32.36 14.63-10.27 5.87-19.89 12.85-28.98 20.42a180.87 180.87 0 0 0-22.23 22.05c-7.63 9.02-14.68 18.62-20.64 28.83-6.58 11.28-11.96 23.38-16.13 35.76-0.74 2.35-0.84 4.71-0.32 7.06 0.11 2.36 0.81 4.55 2.1 6.59 1.11 2.09 2.63 3.75 4.56 5zM326.83 819.2c0 9.39 7.61 17.01 17.01 17.01h459.21c9.39 0 17.01-7.61 17.01-17.01s-7.61-17.01-17.01-17.01H343.84c-9.39 0-17.01 7.61-17.01 17.01z" p-id="8306" fill="#4ea4fd"></path><path d="M851.755673 468.90061a17.37 17.37 0 1 0 32.095575-13.294423 17.37 17.37 0 1 0-32.095575 13.294423Z" p-id="8307" fill="#4ea4fd"></path></svg>