<?xml version="1.0" standalone="no"?><!DOCTYPE svg PUBLIC "-//W3C//DTD SVG 1.1//EN" "http://www.w3.org/Graphics/SVG/1.1/DTD/svg11.dtd"><svg t="1666087620038" class="icon" viewBox="0 0 1024 1024" version="1.1" xmlns="http://www.w3.org/2000/svg" p-id="6243" xmlns:xlink="http://www.w3.org/1999/xlink" width="200" height="200"><path d="M307.2 332.8h230.4c14.08 0 25.6-11.52 25.6-25.6s-11.52-25.6-25.6-25.6H307.2c-14.08 0-25.6 11.52-25.6 25.6s11.52 25.6 25.6 25.6zM358.4 422.4h-51.2c-14.08 0-25.6 11.52-25.6 25.6s11.52 25.6 25.6 25.6h51.2c14.08 0 25.6-11.52 25.6-25.6s-11.52-25.6-25.6-25.6z" fill="#ffffff" p-id="6244"></path><path d="M870.4 431.36V102.4c0-56.32-46.08-102.4-102.4-102.4H102.4C46.08 0 0 46.08 0 102.4v102.4h153.6v665.6c0 84.48 69.12 153.6 153.6 153.6h396.8c176.64 0 320-143.36 320-320 0-112.64-58.88-215.04-153.6-272.64zM51.2 102.4c0-28.16 23.04-51.2 51.2-51.2h577.28C670.72 66.56 665.6 83.2 665.6 102.4v51.2H51.2V102.4z m256 870.4c-56.32 0-102.4-46.08-102.4-102.4V204.8h512V102.4c0-28.16 23.04-51.2 51.2-51.2s51.2 23.04 51.2 51.2v303.36c-37.12-14.08-75.52-21.76-115.2-21.76-176.64 0-320 143.36-320 320 0 112.64 58.88 211.2 147.2 268.8H307.2z m396.8 0c-148.48 0-268.8-120.32-268.8-268.8s120.32-268.8 268.8-268.8c46.08 0 88.32 11.52 128 33.28 87.04 47.36 140.8 136.96 140.8 235.52 0 148.48-120.32 268.8-268.8 268.8z" fill="#ffffff" p-id="6245"></path><path d="M856.32 616.96l-142.08-64c-6.4-2.56-14.08-2.56-20.48 0l-142.08 64c-8.96 3.84-15.36 12.8-15.36 23.04s6.4 19.2 15.36 23.04l37.12 16.64V806.4c0 8.96 3.84 16.64 11.52 21.76 1.28 1.28 44.8 29.44 103.68 29.44s102.4-28.16 103.68-29.44c7.68-5.12 11.52-12.8 11.52-21.76v-125.44l37.12-16.64c8.96-3.84 15.36-12.8 15.36-23.04 0-11.52-6.4-20.48-15.36-24.32z m-152.32-12.8l80.64 35.84-80.64 37.12-80.64-37.12 80.64-35.84z m64 186.88c-12.8 6.4-37.12 15.36-64 15.36s-51.2-8.96-64-15.36V704l53.76 24.32c3.84 1.28 6.4 2.56 10.24 2.56s7.68-1.28 10.24-2.56L768 704v87.04z" fill="#ffffff" p-id="6246"></path></svg>