<?xml version="1.0" standalone="no"?><!DOCTYPE svg PUBLIC "-//W3C//DTD SVG 1.1//EN" "http://www.w3.org/Graphics/SVG/1.1/DTD/svg11.dtd"><svg t="1666087540063" class="icon" viewBox="0 0 1024 1024" version="1.1" xmlns="http://www.w3.org/2000/svg" p-id="6013" xmlns:xlink="http://www.w3.org/1999/xlink" width="200" height="200"><path d="M912 368H112v480c0 44.16 35.84 80 80 80h416V1024H192a176 176 0 0 1-176-176V176A176 176 0 0 1 192 0h640a176 176 0 0 1 176 176V480h-96V368z m0-96v-96c0-44.16-35.84-80-80-80H192c-44.16 0-80 35.84-80 80v96h800z" fill="#ffffff" p-id="6014"></path><path d="M768 576m96 0l0 0q96 0 96 96l0 0q0 96-96 96l0 0q-96 0-96-96l0 0q0-96 96-96Z" fill="#ffffff" p-id="6015"></path><path d="M864 672m-96 0a96 96 0 1 0 192 0 96 96 0 1 0-192 0Z" fill="#ffffff" p-id="6016"></path><path d="M704 832m96 0l128 0q96 0 96 96l0 0q0 96-96 96l-128 0q-96 0-96-96l0 0q0-96 96-96Z" fill="#ffffff" p-id="6017"></path></svg>