<?xml version="1.0" standalone="no"?><!DOCTYPE svg PUBLIC "-//W3C//DTD SVG 1.1//EN" "http://www.w3.org/Graphics/SVG/1.1/DTD/svg11.dtd"><svg t="1666062381724" class="icon" viewBox="0 0 1024 1024" version="1.1" xmlns="http://www.w3.org/2000/svg" p-id="22630" xmlns:xlink="http://www.w3.org/1999/xlink" width="200" height="200"><path d="M854.5 960.2H742.4v-55.9h112.2v55.9z m-201.7 0h-112v-55.9h112v55.9z m-201.6 0h-112v-55.9h112v55.9z m-201.6 0h-79.1c-15.1 0-29.7-3.1-43.4-9.3l22.9-51c6.4 2.9 13.3 4.4 20.5 4.4h79.1v55.9z m701.5-62.7l-51-22.9c2.9-6.4 4.3-13.3 4.3-20.4V775h55.9v79.2c0.1 15.1-3 29.7-9.2 43.3z m-830.7-42l-27.1-1.2H64.6v-112h55.9v112.6l-0.1 0.6z m840-170h-55.9v-112h55.9v112z m-839.9-32.8H64.6v-112h55.9v112z m839.9-168.8h-55.9v-112h55.9v112z m-839.9-32.8H64.6v-112h55.9v112z m839.9-168.8h-55.9v-112h55.9v112z m-839.9-32.8H64.6v-79.1c0-15.1 3.1-29.7 9.3-43.4l51 22.9c-2.9 6.4-4.4 13.3-4.4 20.5v79.1z m754.3-124.8c-6.4-2.9-13.3-4.3-20.4-4.3h-79.1v-56h79.1c15.1 0 29.7 3.1 43.3 9.2l-22.9 51.1z m-189.2-4.4h-112V64.4h112v55.9z m-201.6 0H372V64.4h112v55.9z m-201.6 0H170.5l-0.1-55.9h112v55.9zM750.2 540.3H274.7c-15.4 0-28-12.5-28-28 0-15.4 12.5-28 28-28h475.5c15.4 0 28 12.5 28 28s-12.5 28-28 28z" p-id="22631" fill="#ffffff"></path><path d="M512.5 778c-15.4 0-28-12.5-28-28V274.6c0-15.4 12.5-28 28-28 15.4 0 28 12.5 28 28v475.5c-0.1 15.4-12.6 27.9-28 27.9z" p-id="22632" fill="#ffffff"></path></svg>