<?xml version="1.0" standalone="no"?><!DOCTYPE svg PUBLIC "-//W3C//DTD SVG 1.1//EN" "http://www.w3.org/Graphics/SVG/1.1/DTD/svg11.dtd"><svg t="1666087501261" class="icon" viewBox="0 0 1024 1024" version="1.1" xmlns="http://www.w3.org/2000/svg" p-id="4951" xmlns:xlink="http://www.w3.org/1999/xlink" width="200" height="200"><path d="M987.428571 804.571429c0 113.700571-28.16 182.857143-109.714285 182.857142H146.285714c-94.354286 0-109.714286-36.169143-109.714285-182.857142 28.525714-55.296 217.234286-108.836571 332.8-133.156572A364.8 364.8 0 0 1 365.714286 621.714286a445.403429 445.403429 0 0 1 2.56-44.873143A310.857143 310.857143 0 0 1 256 329.142857c0-161.572571 106.422857-292.571429 237.714286-292.571428S731.428571 167.570286 731.428571 329.142857a310.857143 310.857143 0 0 1-112.274285 247.698286A445.403429 445.403429 0 0 1 621.714286 621.714286a416.292571 416.292571 0 0 1-3.291429 48.566857C758.491429 692.699429 987.428571 744.009143 987.428571 804.571429z m-475.428571-146.285715h-36.571429l-36.571428 106.642286L475.428571 950.857143h36.571429l36.571429-187.721143z" p-id="4952" fill="#ffffff"></path></svg>